<?xml version="1.0" standalone="no"?><!DOCTYPE svg PUBLIC "-//W3C//DTD SVG 1.1//EN" "http://www.w3.org/Graphics/SVG/1.1/DTD/svg11.dtd"><svg t="1621931055506" class="icon" viewBox="0 0 1024 1024" version="1.1" xmlns="http://www.w3.org/2000/svg" p-id="36395" xmlns:xlink="http://www.w3.org/1999/xlink" width="200" height="200"><defs><style type="text/css"></style></defs><path d="M510.198519 644.266667c-15.739259 0-28.444444-12.705185-28.444445-28.444445V269.842963c0-15.739259 12.705185-28.444444 28.444445-28.444444s28.444444 12.705185 28.444444 28.444444v345.979259c0 15.644444-12.705185 28.444444-28.444444 28.444445z" p-id="36396"></path><path d="M511.051852 766.103704m-28.444445 0a28.444444 28.444444 0 1 0 56.888889 0 28.444444 28.444444 0 1 0-56.888889 0Z" p-id="36397"></path><path d="M511.051852 822.992593c-31.383704 0-56.888889-25.505185-56.888889-56.888889s25.505185-56.888889 56.888889-56.888889 56.888889 25.505185 56.888889 56.888889-25.505185 56.888889-56.888889 56.888889z m0-56.888889z" p-id="36398"></path><path d="M510.198519 967.111111c-61.44 0-121.078519-12.041481-177.114075-35.745185-54.234074-22.945185-102.874074-55.751111-144.687407-97.564445C146.583704 791.988148 113.777778 743.348148 90.832593 689.114074c-23.703704-56.13037-35.745185-115.768889-35.745186-177.114074s12.041481-121.078519 35.745186-177.114074C113.777778 280.651852 146.583704 232.011852 188.397037 190.198519c41.813333-41.813333 90.453333-74.619259 144.687407-97.564445 56.035556-23.703704 115.674074-35.745185 177.114075-35.745185s121.078519 12.041481 177.114074 35.745185c54.234074 22.945185 102.874074 55.751111 144.687407 97.564445 41.813333 41.813333 74.619259 90.453333 97.564444 144.687407 23.703704 56.13037 35.745185 115.768889 35.745186 177.114074s-12.041481 121.078519-35.745186 177.114074c-22.945185 54.234074-55.751111 102.874074-97.564444 144.687407-41.813333 41.813333-90.453333 74.619259-144.687407 97.564445-56.13037 23.703704-115.674074 35.745185-177.114074 35.745185z m0-853.333333c-219.591111 0-398.222222 178.631111-398.222223 398.222222s178.631111 398.222222 398.222223 398.222222 398.222222-178.631111 398.222222-398.222222-178.631111-398.222222-398.222222-398.222222z" p-id="36399"></path></svg>