<?xml version="1.0" standalone="no"?><!DOCTYPE svg PUBLIC "-//W3C//DTD SVG 1.1//EN" "http://www.w3.org/Graphics/SVG/1.1/DTD/svg11.dtd"><svg t="1621929809431" class="icon" viewBox="0 0 1024 1024" version="1.1" xmlns="http://www.w3.org/2000/svg" p-id="23547" xmlns:xlink="http://www.w3.org/1999/xlink" width="200" height="200"><defs><style type="text/css"></style></defs><path d="M245.78 516.02H739.6c15.09 3.06 25.96 16.43 25.96 31.95s-10.86 28.89-25.96 31.95H245.78c-15.1-3.06-25.96-16.42-25.96-31.95 0-15.52 10.87-28.89 25.96-31.95zM739.6 681.53H245.78c-15.1 3.06-25.96 16.42-25.96 31.95 0 15.52 10.86 28.89 25.96 31.95H739.6c15.09-3.06 25.96-16.43 25.96-31.95 0-15.53-10.87-28.9-25.96-31.95zM245.78 414.42h285.89c15.36-1.68 26.75-15.12 25.99-30.67 1.47-16.03-10.11-30.27-25.99-31.95H245.78c-15.88 1.68-27.46 15.92-25.99 31.95-0.76 15.55 10.64 29 25.99 30.67zM960.3 225.28l-6.97 669.68c0 70.58-56.76 127.8-126.79 127.8H192.63c-70.01 0-126.78-57.22-126.78-127.8V128.15C65.85 57.57 122.61 0.35 192.63 0.35H743.5l216.8 224.93z m-70.36 94.57H699.76c-35.01 0-63.39-28.61-63.39-63.9V64.25H192.63c-35.01 0-63.39 28.61-63.39 63.9v766.81c0 35.29 28.38 63.9 63.39 63.9h633.91c35.01 0 63.4-28.61 63.4-63.9V319.85z m0-63.9L699.76 64.25v160.39c0 8.31 3.27 16.27 9.1 22.14a30.963 30.963 0 0 0 21.97 9.17h159.11z" p-id="23548"></path></svg>