<?xml version="1.0" standalone="no"?><!DOCTYPE svg PUBLIC "-//W3C//DTD SVG 1.1//EN" "http://www.w3.org/Graphics/SVG/1.1/DTD/svg11.dtd"><svg t="1629794709948" class="icon" viewBox="0 0 1024 1024" version="1.1" xmlns="http://www.w3.org/2000/svg" p-id="14886" xmlns:xlink="http://www.w3.org/1999/xlink" width="200" height="200"><defs><style type="text/css"></style></defs><path d="M423.1984 640a83.84 83.84 0 0 1-64-28.8 259.84 259.84 0 0 1-26.88-308.48L441.1184 128a261.12 261.12 0 1 1 448 272l-35.2 57.6a83.84 83.84 0 1 1-145.92-90.24l35.2-57.6a92.8 92.8 0 0 0-158.72-96.64L476.9584 389.76a92.8 92.8 0 0 0 9.6 109.44 83.84 83.84 0 0 1-64 139.52z" p-id="14887"></path><path d="M357.9184 1024A261.12 261.12 0 0 1 135.1984 626.56L166.5584 576a83.84 83.84 0 1 1 144 87.68l-31.36 51.2a92.8 92.8 0 0 0 30.72 128 91.52 91.52 0 0 0 70.4 10.88 92.16 92.16 0 0 0 57.6-41.6L545.4384 634.24a93.44 93.44 0 0 0-6.4-105.6A83.84 83.84 0 1 1 673.4384 424.96a262.4 262.4 0 0 1 17.28 296.96L581.2784 896A259.84 259.84 0 0 1 417.4384 1016.32a263.68 263.68 0 0 1-59.52 7.68z" p-id="14888"></path></svg>