<?xml version="1.0" standalone="no"?><!DOCTYPE svg PUBLIC "-//W3C//DTD SVG 1.1//EN" "http://www.w3.org/Graphics/SVG/1.1/DTD/svg11.dtd"><svg t="1620893869643" class="icon" viewBox="0 0 1024 1024" version="1.1" xmlns="http://www.w3.org/2000/svg" p-id="9035" xmlns:xlink="http://www.w3.org/1999/xlink" width="200" height="200"><defs><style type="text/css"></style></defs><path d="M845.1 64H178.9C128.1 64 87 105.1 87 155.9v712.2c0 50.7 41.1 91.9 91.9 91.9h666.3c50.8 0 91.9-41.2 91.9-91.9V155.9c-0.1-50.8-41.2-91.9-92-91.9z m23 781.1c0 25.4-20.6 46-45.9 46H201.8c-25.4 0-45.9-20.6-45.9-46V178.9c0-25.4 20.6-46 45.9-46h620.3c25.4 0 45.9 20.6 45.9 46v666.2z" fill="#999999" p-id="9036"></path><path d="M270.8 201.8h482.5c25.4 0 45.9 20.6 45.9 46v413.5c0 25.4-20.6 45.9-45.9 45.9H270.8c-25.4 0-45.9-20.6-45.9-45.9V247.8c-0.1-25.4 20.5-46 45.9-46zM515.3 743.4c29.9 0 54.2 24.2 54.2 54.1 0 29.9-24.2 54.2-54.2 54.2-29.9 0-54.2-24.2-54.2-54.2 0-29.9 24.3-54.1 54.2-54.1z" fill="#999999" p-id="9037"></path></svg>