<?xml version="1.0" standalone="no"?><!DOCTYPE svg PUBLIC "-//W3C//DTD SVG 1.1//EN" "http://www.w3.org/Graphics/SVG/1.1/DTD/svg11.dtd"><svg t="1621929517146" class="icon" viewBox="0 0 1106 1024" version="1.1" xmlns="http://www.w3.org/2000/svg" p-id="15724" xmlns:xlink="http://www.w3.org/1999/xlink" width="216.015625" height="200"><defs><style type="text/css"></style></defs><path d="M20.974686 24.672464C34.764058 9.621643 55.009082 0.766763 75.439614 0.915169 389.9857 0.902802 704.531787 0.902802 1019.077874 0.902802c9.065121 0.08657 18.253913-0.494686 27.20773 1.434589 20.39343 3.957488 38.758647 17.029565 49.283092 34.937198 6.839034 11.464348 10.437874 24.808502 10.351304 38.165025-0.012367 227.951304 0 455.902609-0.012367 683.853913-0.037101 19.775072-8.533333 39.302802-22.86686 52.894299-13.678068 13.23285-32.624541 20.789179-51.657585 20.616039-112.89971-0.012367-225.811787 0.024734-338.723864-0.012367-0.061836 44.323865-0.012367 88.660097-0.024735 132.996328 32.550338 0 65.088309 0.012367 97.638648 0 4.501643 0.012367 9.065121-0.234976 13.529662 0.667826 8.236522 1.719034 15.520773 7.346087 19.329855 14.852947 4.192464 8.038647 4.180097 18.09314-0.024735 26.131787-4.551111 8.941449-14.123285 15.125024-24.177777 15.372368-163.283478 0.160773-326.566957 0.148406-489.838068 0-8.793043-0.123671-17.31401-4.77372-22.372174-11.946667-5.998068-8.261256-6.950338-19.812174-2.423961-28.951498 4.637681-9.844251 15.261063-16.398841 26.144154-16.114396 34.788792-0.024734 69.577585 0 104.366377-0.012367 0.024734-44.311498-0.024734-88.622995 0.024734-132.934493-113.530435-0.123671-227.048502 0.012367-340.578937-0.074203-20.071884-0.17314-39.859324-9.040386-53.388985-23.868599-12.701063-13.603865-19.849275-32.154589-19.688503-50.767149C1.162512 530.563092 1.162512 302.982802 1.174879 75.402512c-0.123671-18.61256 7.061643-37.138551 19.799807-50.730048m47.489855 26.688309c-7.50686 2.164251-13.801739 8.088116-16.374106 15.471304-1.929275 5.107633-1.397488 10.67285-1.459324 16.027826 0.012367 225.069758-0.012367 450.151884 0.012367 675.221643-0.531787 12.960773 10.598647 24.969275 23.596522 25.191884 197.453913 0.247343 394.907826-0.160773 592.361739-0.074203 121.606184 0.284444 243.224734 0.074203 364.830918 0.136039 13.467826 0.494686 25.6-11.674589 25.018744-25.142416-0.012367-227.555556-0.012367-455.111111 0-682.666666 0.593623-13.467826-11.526184-25.624734-24.981643-25.142416-318.651981-0.012367-637.316329-0.012367-955.968309 0-2.374493 0.061836-4.761353 0.296812-7.036908 0.977005M464.262802 965.763092c59.634396 0.061836 119.256425 0.012367 178.890821 0.024734 0.012367-44.150725 0.012367-88.289082 0-132.439807-59.547826-0.098937-119.108019 0.17314-178.655845-0.136038-0.531787 44.163092-0.049469 88.375652-0.234976 132.551111z" p-id="15725"></path><path d="M753.765411 201.089855c3.017585-0.655459 6.121739-0.754396 9.201159-0.754396 54.477295 0.08657 108.966957-0.098937 163.431884 0.08657 16.473043 0.247343 30.682899 15.644444 29.532754 32.092754-0.210242 16.077295-14.84058 30.052174-30.89314 29.656425-54.798841 0.024734-109.597681 0.012367-164.408889 0-9.324831 0.098937-18.575459-4.279034-24.338551-11.612754-6.542222-7.964444-8.471498-19.305121-5.20657-29.0257 3.277295-10.178164 12.231111-18.229179 22.681353-20.442899zM276.282126 235.60657c33.082126-17.425314 71.098744-25.327923 108.3857-22.495845 39.599614 2.696039 78.284058 17.57372 109.461643 42.134879 28.221836 21.988792 50.482705 51.595749 63.604251 84.888116 10.67285 26.910918 15.347633 56.14686 13.814106 85.048889-58.088502 0.012367-116.164638-0.012367-174.25314 0.012367 26.20599 45.449275 52.461449 90.861449 78.679807 136.310724 3.351498 6.022802 7.123478 11.810628 10.178164 18.006571-37.942415 26.552271-85.048889 39.760386-131.264928 36.000772-54.267053-3.660676-106.258551-30.868406-140.639227-72.929082-24.524058-29.656425-40.279807-66.448696-44.633043-104.687922-4.563478-38.709179 2.287923-78.716908 19.775072-113.579904 18.760966-37.670338 49.592271-69.194203 86.891595-88.709565m59.003671 30.435556c-34.961932 8.02628-66.621836 29.149372-87.843865 58.026666-19.972947 26.861449-30.596329 60.500097-29.656425 93.953237 0.655459 31.573333 11.550918 62.825121 30.682899 87.942802 21.605411 28.778357 53.710531 49.542802 88.907439 57.123865 26.366763 5.849662 54.242319 4.402705 79.928889-3.870918-2.12715-4.551111-4.934493-8.743575-7.346087-13.133913-32.735845-56.802319-65.644831-113.5057-98.281739-170.369855 68.575845-0.012367 137.139324 0 205.715169 0-10.388406-40.193237-38.103188-75.414879-74.598647-95.165218-32.426667-17.845797-71.50686-23.089469-107.507633-14.506666zM753.777778 355.66686c2.64657-0.568889 5.37971-0.704928 8.088116-0.742029 54.835942 0.074203 109.684251-0.098937 164.520193 0.08657 16.955362 0.222609 31.387826 16.522512 29.470918 33.403671-0.890435 15.570242-15.223961 28.691787-30.794203 28.345508-54.823575 0.024734-109.659517 0.024734-164.483092 0-9.337198 0.08657-18.563092-4.316135-24.326183-11.649855-6.529855-7.989179-8.446763-19.366957-5.132368-29.099904 3.314396-10.128696 12.243478-18.130242 22.656619-20.343961z" p-id="15726"></path><path d="M428.497005 440.122126c76.676329-0.024734 153.352657-0.024734 230.028985-0.012368 0.395749 42.332754-12.936039 84.640773-37.719806 118.971981-21.25913 29.755362-50.779517 53.487923-84.356329 67.969855-36.025507-62.280966-71.976812-124.611401-107.95285-186.929468m85.691981 49.468599c13.282319 23.089469 26.614106 46.141836 39.945893 69.20657 21.766184-18.080773 38.31343-42.345121 47.193044-69.20657-29.038068-0.024734-58.088502-0.024734-87.138937 0zM753.728309 516.452174c2.658937-0.581256 5.392077-0.717295 8.11285-0.754396 54.415459 0.037101 108.843285-0.024734 163.271112 0.037101 9.844251-0.061836 19.502995 4.959227 25.154782 13.010242 6.257778 8.595169 7.42029 20.517101 3.153623 30.237681-4.724251 11.056232-16.324638 18.69913-28.370241 18.550725-52.745894 0.037101-105.491787-0.012367-158.237681 0.024734-5.008696-0.024734-10.128696 0.234976-14.964252-1.249082-7.828406-2.201353-14.617971-7.68-18.513623-14.791111-5.218937-9.324831-5.058164-21.407536 0.445218-30.571595 4.279034-7.296618 11.674589-12.701063 19.948212-14.494299z" p-id="15727"></path></svg>